HIERARCHY
ROOT Hips
{
 OFFSET 0.000000 0.000000 0.000000
 CHANNELS 6 Xposition Yposition Zposition Yrotation Xrotation Zrotation
 JOINT Chest
 {
  OFFSET 0.000000 9.585900 0.002600
  CHANNELS 3 Yrotation Xrotation Zrotation
  JOINT Chest2
  {
   OFFSET 0.000000 9.601200 -0.005300
   CHANNELS 3 Yrotation Xrotation Zrotation
   JOINT Chest3
   {
    OFFSET 0.000000 9.561800 0.000000
    CHANNELS 3 Yrotation Xrotation Zrotation
    JOINT Chest4
    {
     OFFSET 0.000000 9.552100 0.000000
     CHANNELS 3 Yrotation Xrotation Zrotation
     JOINT Neck
     {
      OFFSET 0.000000 14.453000 0.000000
      CHANNELS 3 Yrotation Xrotation Zrotation
      JOINT Head
      {
       OFFSET 0.000000 8.936500 -0.011300
       CHANNELS 3 Yrotation Xrotation Zrotation
       End Site
       {
        OFFSET 0.000000 17.073600 -0.006000
       }
      }
     }
     JOINT RightCollar
     {
      OFFSET -2.921100 9.558500 0.000000
      CHANNELS 3 Yrotation Xrotation Zrotation
      JOINT RightShoulder
      {
       OFFSET -13.519700 0.000000 0.000000
       CHANNELS 3 Yrotation Xrotation Zrotation
       JOINT RightElbow
       {
        OFFSET 0.000000 -29.696600 0.000000
        CHANNELS 3 Yrotation Xrotation Zrotation
        JOINT RightWrist
        {
         OFFSET 0.000000 -24.004700 0.000000
         CHANNELS 3 Yrotation Xrotation Zrotation
         End Site
         {
          OFFSET 0.000000 -17.728500 0.000000
         }
        }
       }
      }
     }
     JOINT LeftCollar
     {
      OFFSET 2.921100 9.558500 0.000000
      CHANNELS 3 Yrotation Xrotation Zrotation
      JOINT LeftShoulder
      {
       OFFSET 13.519700 0.000000 0.000000
       CHANNELS 3 Yrotation Xrotation Zrotation
       JOINT LeftElbow
       {
        OFFSET 0.000000 -29.696600 0.000000
        CHANNELS 3 Yrotation Xrotation Zrotation
        JOINT LeftWrist
        {
         OFFSET 0.000000 -24.004700 0.000000
         CHANNELS 3 Yrotation Xrotation Zrotation
         End Site
         {
          OFFSET 0.000000 -17.728500 0.000000
         }
        }
       }
      }
     }
    }
   }
  }
 }
 JOINT RightHip
 {
  OFFSET -7.771700 -0.012900 -0.001300
  CHANNELS 3 Yrotation Xrotation Zrotation
  JOINT RightKnee
  {
   OFFSET 0.000000 -40.869800 0.001200
   CHANNELS 3 Yrotation Xrotation Zrotation
   JOINT RightAnkle
   {
    OFFSET 0.000000 -39.717900 0.002100
    CHANNELS 3 Yrotation Xrotation Zrotation
    JOINT RightToe
    {
     OFFSET 0.000000 -4.965400 11.033500
     CHANNELS 3 Yrotation Xrotation Zrotation
     End Site
     {
      OFFSET 0.000000 -1.423100 5.872300
     }
    }
   }
  }
 }
 JOINT LeftHip
 {
  OFFSET 7.771700 -0.012900 -0.001300
  CHANNELS 3 Yrotation Xrotation Zrotation
  JOINT LeftKnee
  {
   OFFSET 0.000000 -40.869800 0.001200
   CHANNELS 3 Yrotation Xrotation Zrotation
   JOINT LeftAnkle
   {
    OFFSET 0.000000 -39.717900 0.002100
    CHANNELS 3 Yrotation Xrotation Zrotation
    JOINT LeftToe
    {
     OFFSET 0.000000 -4.965400 11.033500
     CHANNELS 3 Yrotation Xrotation Zrotation
     End Site
     {
      OFFSET 0.000000 -1.423100 5.872300
     }
    }
   }
  }
 }
}
MOTION
Frames: 16
Frame Time: 0.008333
0.000000 85.388000 0.000000 0.000000 -5.767877 0.000000 0.000000 11.653817 0.000000 0.000000 -5.885947 0.000000 0.000000 -0.000000 0.000000 0.000000 -0.000000 0.000000 0.000000 12.528835 0.000000 0.000000 0.711642 0.000000 0.000000 -0.000000 0.000000 0.000000 0.000000 -90.000000 0.000000 -2.309062 0.000000 0.000000 2.309062 0.000000 0.000000 -0.000000 0.000000 0.000000 -0.000000 90.000000 0.000000 -2.309062 0.000000 0.000000 2.309062 0.000000 0.000000 8.520406 0.000000 0.000000 1.905762 0.000000 -0.000000 -4.658285 0.000000 0.000000 -0.000000 0.000000 0.000000 8.520406 0.000000 0.000000 1.905762 0.000000 -0.000000 -4.658285 0.000000 0.000000 -0.000000 0.000000
-83.555483 58.034570 88.681056 174.420719 -28.768790 -0.856352 1.600162 18.233503 2.958267 0.125880 2.073598 0.322723 0.214781 3.431303 0.536780 1.289769 15.873405 2.652300 3.071643 18.461449 -2.428938 6.359194 -1.319172 -5.459005 7.081971 -3.961008 -5.036342 -3.296736 -7.443066 -4.721121 -95.720024 -39.828819 92.099044 -17.131743 -3.299567 -17.851442 -4.668500 -3.710568 0.617184 19.578322 0.818942 -12.012274 79.433242 -29.326565 -84.432727 21.044578 -20.378847 18.464538 5.444842 -47.351872 -3.514136 -7.817329 68.469443 -7.985462 9.538262 24.668901 3.220449 -0.445188 -17.697000 2.817587 -7.306485 -43.576150 3.725461 27.623256 67.686783 26.103439 -14.879256 2.442558 -2.295538 0.043013 0.174547 0.029572
-83.557265 58.034867 88.681082 174.424251 -28.766755 -0.861600 1.597371 18.268950 2.965946 0.124680 2.081085 0.323767 0.214561 3.415423 0.535234 1.288041 15.865169 2.650462 3.032769 18.432503 -2.457176 6.361842 -1.410618 -5.528192 7.080169 -3.944825 -5.054742 -3.343719 -7.384828 -4.663696 -95.684216 -39.681450 92.067276 -17.235519 -3.517576 -18.183025 -4.646447 -3.670947 0.636674 19.579692 0.856992 -12.062233 79.476690 -29.282758 -84.305608 21.122798 -20.483644 18.795455 5.448875 -47.352316 -3.513873 -7.786654 68.469018 -7.957802 9.527327 24.669085 3.228283 -0.437216 -17.697857 2.815118 -7.300275 -43.575232 3.731907 27.597110 67.688195 26.076240 -14.887121 2.436906 -2.291712 0.050049 0.179431 0.031216
-83.559836 58.035023 88.681390 174.427122 -28.762763 -0.864775 1.595339 18.273599 2.968453 0.124821 2.091792 0.324451 0.213202 3.424778 0.537300 1.281958 15.877622 2.650496 3.051865 18.396674 -2.494594 6.408422 -1.485561 -5.574211 7.078226 -3.951344 -5.069936 -3.397162 -7.337126 -4.593274 -95.688517 -39.546910 92.048077 -17.348058 -3.769705 -18.557011 -4.627401 -3.652299 0.654561 19.582007 0.872333 -12.107263 79.543156 -29.241942 -84.194844 21.190008 -20.593257 19.113248 5.455473 -47.354226 -3.512143 -7.743892 68.467010 -7.928086 9.513985 24.668880 3.246087 -0.439929 -17.697705 2.814787 -7.288480 -43.576485 3.734247 27.564333 67.689599 26.045929 -14.896331 2.431584 -2.291050 0.058500 0.183862 0.033926
-83.563406 58.035428 88.681093 174.426547 -28.763081 -0.862418 1.594626 18.281726 2.966485 0.129195 2.100552 0.323879 0.207328 3.432556 0.540039 1.284632 15.911387 2.654270 3.068301 18.342412 -2.510292 6.535760 -1.517805 -5.626025 7.062117 -3.976598 -5.084603 -3.454855 -7.303412 -4.506961 -95.728729 -39.418432 92.037484 -17.463286 -4.048889 -18.956338 -4.615222 -3.656203 0.679027 19.580503 0.867238 -12.152561 79.624988 -29.202822 -84.092112 21.242146 -20.701705 19.424833 5.484817 -47.350442 -3.528240 -7.763768 68.464492 -7.942815 9.513833 24.660687 3.252676 -0.443868 -17.691022 2.820872 -7.279148 -43.576197 3.732653 27.561325 67.693107 26.031151 -14.892272 2.430522 -2.276628 0.048651 0.182943 0.030653
-83.568406 58.035486 88.681123 174.428436 -28.761320 -0.854923 1.594298 18.293778 2.958802 0.134690 2.098857 0.322343 0.207676 3.450741 0.541261 1.287834 15.906230 2.653182 3.158347 18.328540 -2.514479 6.665139 -1.544071 -5.648807 7.026764 -3.966175 -5.079354 -3.512850 -7.293553 -4.408553 -95.804615 -39.286154 92.029044 -17.579470 -4.346418 -19.361467 -4.615389 -3.634529 0.704934 19.573471 0.840016 -12.187221 79.716090 -29.167623 -83.994552 21.282665 -20.807181 19.730512 5.514002 -47.351760 -3.552088 -7.790041 68.464847 -7.965315 9.514063 24.661075 3.260174 -0.440796 -17.692364 2.822611 -7.266252 -43.578719 3.722423 27.572170 67.692578 26.024543 -14.888575 2.432835 -2.257208 0.032452 0.182273 0.027515
-83.571449 58.035184 88.681729 174.430820 -28.758446 -0.861253 1.603343 18.301379 2.964301 0.138558 2.092866 0.323660 0.200317 3.454619 0.541901 1.303137 15.920739 2.652047 3.281021 18.316270 -2.508519 6.832518 -1.554457 -5.662498 6.984880 -3.959899 -5.065784 -3.569463 -7.297396 -4.303013 -95.911270 -39.141725 92.018193 -17.693115 -4.654832 -19.757886 -4.628108 -3.623355 0.721040 19.585611 0.830029 -12.198819 79.803221 -29.138648 -83.937628 21.315318 -20.906306 20.031168 5.519743 -47.354246 -3.550146 -7.814365 68.462713 -7.988303 9.512803 24.657690 3.261779 -0.433517 -17.689004 2.825528 -7.257153 -43.583980 3.725583 27.551228 67.697013 26.010923 -14.902309 2.434736 -2.259374 0.045131 0.179928 0.030006
-83.575878 58.035945 88.679714 174.442986 -28.773705 -0.863718 1.619348 18.312693 2.966495 0.126651 2.094436 0.325271 0.200454 3.464202 0.542566 1.311656 15.919231 2.652475 3.407513 18.318731 -2.494240 7.059889 -1.541303 -5.676448 6.909117 -3.921831 -5.034753 -3.595754 -7.337410 -4.201740 -96.038826 -38.984219 92.006165 -17.798568 -4.973744 -20.161241 -4.641135 -3.608415 0.728642 19.599400 0.803418 -12.193512 79.881786 -29.110194 -83.878888 21.340992 -20.998597 20.323967 5.519079 -47.337937 -3.555445 -7.836401 68.463797 -8.014529 9.525935 24.655053 3.266755 -0.440356 -17.690461 2.833030 -7.247906 -43.568247 3.708114 27.548349 67.693884 26.011049 -14.900120 2.436721 -2.255370 0.040210 0.179867 0.031815
-83.579735 58.036048 88.678324 174.442301 -28.786728 -0.864500 1.636757 18.317470 2.970167 0.128007 2.095403 0.325300 0.212684 3.468401 0.541795 1.312158 15.918919 2.654642 3.553317 18.331697 -2.471780 7.319327 -1.507669 -5.680618 6.853794 -3.904109 -5.008193 -3.651832 -7.360414 -4.095280 -96.176776 -38.811639 91.997757 -17.891354 -5.311176 -20.600484 -4.658359 -3.598557 0.737782 19.626128 0.734658 -12.165865 79.927819 -29.065458 -83.784776 21.362012 -21.089003 20.605622 5.520191 -47.325424 -3.552681 -7.861223 68.463311 -8.042457 9.527730 24.657868 3.273398 -0.431773 -17.694128 2.829472 -7.219978 -43.555210 3.691570 27.559581 67.692262 26.034493 -14.920397 2.427805 -2.251580 0.038341 0.183417 0.029487
-83.583750 58.035872 88.676664 174.445646 -28.802734 -0.866287 1.643153 18.328186 2.971951 0.128767 2.095696 0.325246 0.224145 3.462544 0.540125 1.308194 15.925827 2.657275 3.727928 18.349539 -2.449685 7.603803 -1.455353 -5.675783 6.808317 -3.886374 -4.983581 -3.706767 -7.393277 -4.000158 -96.318624 -38.627426 91.992789 -17.975477 -5.677747 -21.086347 -4.668417 -3.600508 0.733880 19.648215 0.671736 -12.133713 79.983727 -29.034007 -83.715045 21.382326 -21.175862 20.874962 5.513445 -47.308674 -3.554816 -7.870469 68.463128 -8.054475 9.550712 24.656299 3.287566 -0.436684 -17.695295 2.823213 -7.213615 -43.539801 3.683846 27.563975 67.693772 26.041419 -14.924395 2.422848 -2.248402 0.039710 0.184859 0.026879
-83.587256 58.035511 88.674612 174.450275 -28.822975 -0.870950 1.649792 18.341363 2.976863 0.129609 2.095904 0.325102 0.238448 3.451147 0.538693 1.324637 15.926087 2.659035 3.892142 18.384441 -2.410576 7.904274 -1.383565 -5.663351 6.736843 -3.859966 -4.945814 -3.755586 -7.435651 -3.924292 -96.462484 -38.436186 91.986171 -18.054440 -6.080418 -21.618981 -4.696886 -3.600950 0.726517 19.678448 0.586063 -12.079578 80.020701 -28.988441 -83.634396 21.402962 -21.258158 21.128909 5.485899 -47.285464 -3.541932 -7.865033 68.460999 -8.059848 9.561601 24.648653 3.295529 -0.430469 -17.690438 2.814887 -7.215158 -43.519742 3.680756 27.567988 67.694763 26.044970 -14.910253 2.421113 -2.248212 0.050954 0.184415 0.026864
-83.590729 58.033709 88.674444 174.453408 -28.831704 -0.874869 1.671353 18.313884 2.985525 0.132817 2.095962 0.325755 0.226186 3.466326 0.541630 1.343901 15.921589 2.663267 4.059679 18.431841 -2.368092 8.208062 -1.289743 -5.643688 6.670929 -3.829486 -4.914155 -3.795810 -7.484813 -3.869326 -96.611697 -38.240473 91.979905 -18.123572 -6.523183 -22.198680 -4.713931 -3.607197 0.704298 19.705276 0.514957 -12.019912 80.067829 -28.944184 -83.579857 21.423063 -21.335020 21.376848 5.472833 -47.277392 -3.534299 -7.879354 68.461213 -8.080611 9.566344 24.644113 3.301269 -0.442273 -17.686428 2.816009 -7.212777 -43.515527 3.677203 27.568371 67.698593 26.050568 -14.908956 2.424539 -2.249947 0.052442 0.180726 0.027608
-83.594474 58.031634 88.674072 174.454829 -28.843017 -0.874213 1.676098 18.302600 2.988899 0.131234 2.107360 0.324427 0.229810 3.459950 0.543776 1.345489 15.926686 2.665656 4.238844 18.474143 -2.321552 8.504673 -1.174082 -5.616283 6.626932 -3.812936 -4.888939 -3.820837 -7.538556 -3.834562 -96.773346 -38.047329 91.976390 -18.178021 -6.999626 -22.820030 -4.707402 -3.627690 0.676055 19.740563 0.435899 -11.962632 80.113561 -28.898666 -83.532986 21.444755 -21.405839 21.634218 5.464005 -47.266800 -3.530814 -7.882200 68.462038 -8.091600 9.569543 24.639678 3.305016 -0.444025 -17.683043 2.816456 -7.204887 -43.504677 3.662344 27.574705 67.693596 26.065401 -14.907431 2.422571 -2.252594 0.054964 0.183980 0.025988
-83.596233 58.030103 88.672482 174.455825 -28.865714 -0.881965 1.678197 18.300623 3.001323 0.134494 2.120181 0.322825 0.227653 3.465446 0.543059 1.351815 15.918847 2.670973 4.403749 18.523343 -2.268053 8.783954 -1.038162 -5.579757 6.582358 -3.796004 -4.860244 -3.826175 -7.601140 -3.818945 -96.951439 -37.859938 91.971285 -18.211713 -7.493738 -23.473675 -4.699583 -3.656210 0.642780 19.782790 0.355857 -11.907322 80.157711 -28.855760 -83.493849 21.471179 -21.476638 21.898008 5.423480 -47.243769 -3.490868 -7.874784 68.459992 -8.110443 9.561025 24.634687 3.309502 -0.437283 -17.679152 2.814190 -7.207968 -43.482655 3.662427 27.583320 67.696745 26.080732 -14.901771 2.414631 -2.258543 0.052896 0.187835 0.027451
-83.596312 58.028210 88.671484 174.454756 -28.887899 -0.896348 1.681169 18.294587 3.022015 0.136080 2.123624 0.321543 0.228173 3.464190 0.545048 1.356902 15.883040 2.695498 4.543467 18.625075 -2.229916 9.033189 -0.883332 -5.533139 6.555368 -3.730370 -4.863673 -3.838641 -7.672984 -3.797359 -97.141900 -37.678044 91.959909 -18.222887 -7.988742 -24.140250 -4.687925 -3.640182 0.578735 19.826741 0.268159 -11.856625 80.208220 -28.810100 -83.468538 21.499738 -21.551688 22.159571 5.389821 -47.222792 -3.450857 -7.867355 68.460116 -8.119376 9.556249 24.628363 3.319499 -0.435878 -17.674369 2.807776 -7.217189 -43.460718 3.673782 27.580804 67.700023 26.094127 -14.902160 2.406722 -2.278617 0.055632 0.191445 0.034066
-83.596791 58.026997 88.669125 174.452267 -28.922150 -0.904319 1.684546 18.296687 3.037919 0.134193 2.125560 0.322996 0.228005 3.460657 0.546983 1.362821 15.861619 2.711955 4.667914 18.723335 -2.185498 9.243789 -0.715063 -5.476342 6.529620 -3.671120 -4.862234 -3.850296 -7.759972 -3.775795 -97.336868 -37.498107 91.943400 -18.218281 -8.458643 -24.801003 -4.666429 -3.633097 0.513476 19.870867 0.176413 -11.806924 80.263459 -28.755683 -83.466305 21.528275 -21.635591 22.418416 5.375516 -47.189528 -3.429379 -7.863510 68.462369 -8.120462 9.554998 24.625009 3.321710 -0.435331 -17.673666 2.807189 -7.217583 -43.427195 3.676537 27.572254 67.702152 26.095926 -14.910865 2.407183 -2.286092 0.067444 0.190026 0.033521
